# xmcd
#
# Track frame offsets:
#	150
#	18600
#	41692
#	57672
#	82412
#	102970
#	127475
#	147567
#	173659
#	192100
#	210810
#	239297
#	270017
#
# Disc length: 3891 seconds
#
# Revision: 1
# Processed by: cddbd v1.5.1PL0 Copyright (c) Steve Scherf et al.
# Submitted via: audiograbber 1.83.01
#
DISCID=bd0f310d
DTITLE=Bill Heid and The Detroit Blues Masters - We Play The Blues
DYEAR=2000
DGENRE=Blues
TTITLE0=I'm Glad She's Gone
TTITLE1=Love Is Bunk
TTITLE2=Complainin'
TTITLE3=Nothin' Is Forever
TTITLE4=I'm No Good
TTITLE5=We Play The Blues
TTITLE6=Two Wrongs
TTITLE7=Soul Gumbo
TTITLE8=It's Raining
TTITLE9=The Quide Song
TTITLE10=Don't Hold Back
TTITLE11=Boogie On
TTITLE12=Feels Like The Blues
EXTD=
EXTT0=
EXTT1=
EXTT2=
EXTT3=
EXTT4=
EXTT5=
EXTT6=
EXTT7=
EXTT8=
EXTT9=
EXTT10=
EXTT11=
EXTT12=
PLAYORDER=
